<svg xmlns="http://www.w3.org/2000/svg" viewBox="0 0 500 500"><g id="freepik--background-complete--inject-14"><path d="M375.48,244.18H206.78V35.92h168.7Zm-164.7-4h160.7V39.92H210.78Z" style="fill:#ebebeb"></path><rect x="289.07" y="40.97" width="4" height="201.21" style="fill:#ebebeb"></rect><rect x="203.16" y="44.01" width="175.95" height="5.57" style="fill:#ebebeb"></rect><rect x="203.16" y="50.27" width="175.95" height="5.57" style="fill:#ebebeb"></rect><rect x="203.16" y="56.54" width="175.95" height="5.57" style="fill:#ebebeb"></rect><rect x="203.16" y="62.81" width="175.95" height="5.57" style="fill:#ebebeb"></rect><rect x="203.16" y="69.07" width="175.95" height="5.57" style="fill:#ebebeb"></rect><rect x="203.16" y="75.34" width="175.95" height="5.57" style="fill:#ebebeb"></rect><rect x="203.16" y="81.61" width="175.95" height="5.57" style="fill:#ebebeb"></rect><rect x="203.16" y="87.87" width="175.95" height="5.57" style="fill:#ebebeb"></rect><rect x="203.16" y="94.14" width="175.95" height="5.57" style="fill:#ebebeb"></rect><rect x="366.22" y="42.88" width="1" height="108.39" style="fill:#263238"></rect><polygon points="368.5 155.92 364.95 155.92 365.84 150.82 367.61 150.82 368.5 155.92" style="fill:#263238"></polygon><rect x="369.83" y="42.88" width="1" height="165.73" style="fill:#263238"></rect><polygon points="372.1 212.36 368.55 212.36 369.44 207.26 371.21 207.26 372.1 212.36" style="fill:#263238"></polygon><rect x="196.95" y="35.14" width="188.36" height="11.65" style="fill:#dbdbdb"></rect><rect x="46.11" y="275.47" width="26.48" height="11.19" style="fill:#ebebeb"></rect><rect x="31.34" y="289.58" width="26.48" height="11.19" style="fill:#ebebeb"></rect><rect x="127.18" y="148.26" width="26.48" height="11.19" style="fill:#ebebeb"></rect><rect x="112.4" y="162.37" width="26.48" height="11.19" style="fill:#ebebeb"></rect><rect x="97.69" y="148.26" width="26.48" height="11.19" style="fill:#ebebeb"></rect><rect x="442.18" y="289.58" width="26.48" height="11.19" style="fill:#ebebeb"></rect><rect x="427.41" y="36.4" width="26.48" height="11.19" style="fill:#ebebeb"></rect><rect x="442.18" y="50.51" width="26.48" height="11.19" style="fill:#ebebeb"></rect><rect x="46.11" y="36.4" width="26.48" height="11.19" style="fill:#ebebeb"></rect></g><g id="freepik--Floor--inject-14"><polygon points="32 395.06 86.5 394.82 141 394.73 250 394.57 359 394.73 413.5 394.82 468 395.06 413.5 395.31 359 395.4 250 395.56 141 395.4 86.5 395.31 32 395.06" style="fill:#263238"></polygon></g><g id="freepik--Shadow--inject-14"><ellipse cx="250" cy="447.01" rx="199.45" ry="20.73" style="fill:#ebebeb"></ellipse></g><g id="freepik--Plant--inject-14"><ellipse cx="70.05" cy="408.13" rx="29.36" ry="7.18" style="fill:#ebebeb"></ellipse><path d="M74.19,340.67a53.37,53.37,0,0,0-1.7,9.6c.09.17.07.76,0,.6,0,.52-.82.43-.82-.09,0-.34,0-.68,0-1-1.88-2.33-4.61-3.81-6.81-5.83A12.79,12.79,0,0,1,61.14,338c-1.82-6.3-.11-13-2.31-19.25-1.89-5.42-5.29-10.12-8.17-15-3-5.19-5.27-10.64-5.49-16.72-.18-4.65.37-10.85,3.92-14.33,3.75-3.7,8.41-.93,11.29,2.37,8.34,9.57,12.19,21.66,13.75,34,.86,6.84,1.76,13.73,1.55,20.64A56.14,56.14,0,0,1,74.19,340.67Z" style="fill:#0891B2"></path><path d="M72.53,352.79a118.41,118.41,0,0,0-.23-19.39s0,0,0-.07c.11-5.25.52-10.47.32-15.71a93.84,93.84,0,0,0-2.31-16.85c0-.07-.12,0-.1,0a111.24,111.24,0,0,1,1.82,16.48c.11,3,.09,5.93-.07,8.89,0,1-.14,1.93-.21,2.9h0a103.65,103.65,0,0,0-15.59-41.27c-.11-.17-.41,0-.31.19a107.77,107.77,0,0,1,12.7,30.6c-4-7.43-10.07-13.54-14.56-20.68a0,0,0,0,0-.07,0c4,7.95,10.7,14.22,15,22.05.73,3.19,1.34,6.41,1.79,9.65a109.5,109.5,0,0,1,1,13.41,154.23,154.23,0,0,1-7-13.76c-.06-.13-.24,0-.2.09,1.7,5,4,10.42,7.19,14.7,0,3.17-.08,6.35-.27,9.52-.5,8.46-1.94,16.82-2.61,25.25a.2.2,0,0,0,.39.05A194.1,194.1,0,0,0,72.53,352.79Z" style="fill:#263238"></path><path d="M63.54,287.5a.05.05,0,0,0-.1,0c1.55,4.28,2.42,8.61,3.54,13a.16.16,0,0,0,.32,0A46.8,46.8,0,0,0,63.54,287.5Z" style="fill:#263238"></path><path d="M102.8,305.42a64.8,64.8,0,0,1-3.55,7.31c-2.79,5-5.69,9.69-6.22,15.57a36.07,36.07,0,0,1-1.12,7.81,23.33,23.33,0,0,1-3.11,6.11c-3,4.39-6.79,8.18-9.58,12.74a53.58,53.58,0,0,0-6.37,15.36c-.07.3-.54.22-.47-.08a.64.64,0,0,0,0-.07.09.09,0,0,1,0-.06c-.44-12.62.56-25.35,4.42-37.44A129.24,129.24,0,0,1,82.9,317.1a36.86,36.86,0,0,1,8.26-11.88c2.35-2.12,7.44-6.13,10.79-4C103.55,302.23,103.43,303.85,102.8,305.42Z" style="fill:#0891B2"></path><path d="M90.11,334a103.4,103.4,0,0,1-7.33,10.55l-3.68,4.77c-.58.76-1.23,1.51-1.76,2.32.34-1.33.66-2.66,1-4A157.35,157.35,0,0,1,84,328.75a128,128,0,0,1,8.77-17.18c.08-.15-.15-.25-.24-.11-2.67,4.38-5.37,8.77-7.62,13.39a71.13,71.13,0,0,0-3.23,7.95,123.1,123.1,0,0,1,4.3-17c0-.05,0-.09-.07,0a58.17,58.17,0,0,0-4.47,17.66s0,0,0,0c-.55,1.64-1,3.3-1.52,5-2,7.07-3.73,14.2-5.35,21.37a76,76,0,0,1,1.21-14c0-.11-.14-.13-.16,0a44.7,44.7,0,0,0-1.22,14.8q-.91,4.08-1.79,8.18c-1.24,5.82-2.76,11.74-3.49,17.65a.12.12,0,0,0,.23,0c.87-3.19,1.39-6.49,2.1-9.72s1.44-6.46,2.2-9.68c1.09-4.7,2.24-9.39,3.41-14.07a25,25,0,0,1,3.43-4.67c1.24-1.58,2.48-3.16,3.69-4.77a71.49,71.49,0,0,0,6.08-9.4C90.26,334,90.15,334,90.11,334Z" style="fill:#263238"></path><path d="M90.65,328.64a66.94,66.94,0,0,0-7.18,11.41c0,.05.06.11.09.05,2.42-3.78,4.79-7.6,7.2-11.39C90.8,328.65,90.7,328.58,90.65,328.64Z" style="fill:#263238"></path><path d="M36.91,317.39c1.64,2.82,3.51,6.2,2.8,9.59-.44,2.14-2,3.88-2.29,6.06-.64,4.82,4.17,8,7.65,10.29C53.73,349,65.62,354.09,67.2,365.7c.06.41.77.31.72-.09a.19.19,0,0,0,0-.08s0,0,0-.07a44.53,44.53,0,0,0-.17-17.74,56,56,0,0,0-7-16.62c-5.21-8.9-10.74-18-18.63-24.84-2.18-1.88-6.65-5.27-8.39-1S34.91,314,36.91,317.39Z" style="fill:#0891B2"></path><path d="M44.85,336.26c5.74,6.22,14.88,9.71,19.83,16.68a69.85,69.85,0,0,0-15.24-28.63.22.22,0,0,1,.31-.32,56.54,56.54,0,0,1,12.46,18,81.1,81.1,0,0,0-5.36-13.72.14.14,0,0,1,.25-.14,52.28,52.28,0,0,1,5.78,15.41c6.52,15.79,7.12,34.29,5.76,50.93,0,.23-.38.24-.38,0,.38-13.11.16-26.45-3-39.25-.06-.27-.14-.53-.2-.8-5.39-7.5-14.48-11-20.33-18.1C44.69,336.29,44.78,336.19,44.85,336.26Z" style="fill:#263238"></path><path d="M43.51,330.92c3,2.76,6,5.6,9,8.36,0,0,0,.08,0,.06a44.57,44.57,0,0,1-9.15-8.24C43.23,331,43.39,330.8,43.51,330.92Z" style="fill:#263238"></path><path d="M43,318.92a94.77,94.77,0,0,0,9,12.42.05.05,0,0,1-.07.08A43.56,43.56,0,0,1,42.88,319,.09.09,0,0,1,43,318.92Z" style="fill:#263238"></path><polygon points="56.62 406.24 83.05 406.24 79.49 370.68 60.69 370.68 56.62 406.24" style="fill:#455a64"></polygon><polygon points="60.03 376.46 80.07 376.46 79.49 370.68 60.69 370.68 60.03 376.46" style="fill:#263238"></polygon><rect x="57.45" y="366.74" width="24.77" height="5.68" transform="translate(139.67 739.16) rotate(180)" style="fill:#455a64"></rect></g><g id="freepik--Mannequin--inject-14"><rect x="417.25" y="228.42" width="4.74" height="165.18" style="fill:#263238"></rect><polygon points="456.14 416.65 456.14 420.12 451.31 420.12 451.31 418.01 419.62 404.87 387.93 418.01 387.93 420.12 383.1 420.12 383.1 416.65 415.98 398.77 415.98 392.16 423.26 392.16 423.26 398.77 456.14 416.65" style="fill:#263238"></polygon><path d="M450.33,236.89H388.92a123.74,123.74,0,0,1,3.59-26.6c2.26-9.17,8.13-19,8.21-24.41s-7.71-30.67-8.55-33S388.61,135.56,389,134s20.16-6.1,21.86-9.16,1.7-13.56,1.7-13.56h14.23s0,10.51,1.69,13.56S450,132.51,450.3,134s-2.37,16.44-3.23,18.8-8.61,27.63-8.55,33,6,15.24,8.21,24.41A123.42,123.42,0,0,1,450.33,236.89Z" style="fill:#ebebeb"></path><path d="M426.9,116a16.46,16.46,0,0,1-7.28,1.67,14.09,14.09,0,0,1-7.25-1.85c.14-2.49.14-4.48.14-4.48h14.23S426.74,113.41,426.9,116Z" style="fill:#dbdbdb"></path><path d="M434.37,91.8c0,11.82-5.48,23.13-14.74,23.13s-14.75-11.31-14.75-23.13c0-9.78,7.89-17.41,14.75-17.41S434.37,82,434.37,91.8Z" style="fill:#ebebeb"></path></g><g id="freepik--Shelf--inject-14"><path d="M167.71,88.82H109a6.48,6.48,0,0,1-6.47-6.48h0A6.48,6.48,0,0,1,109,75.86h58.68Z" style="fill:#0891B2"></path><path d="M173.54,88.82H134.86a6.48,6.48,0,0,1-6.47-6.48h0a6.48,6.48,0,0,1,6.47-6.48h38.68Z" style="fill:#0891B2"></path><path d="M173.54,88.82H134.86a6.48,6.48,0,0,1-6.47-6.48h0a6.48,6.48,0,0,1,6.47-6.48h38.68Z" style="opacity:0.1"></path><path d="M173.54,84.61H140.86a2.27,2.27,0,0,1-2.27-2.27h0a2.27,2.27,0,0,1,2.27-2.27h32.68Z" style="opacity:0.1"></path><path d="M167.71,75.86H109a6.47,6.47,0,0,1-6.47-6.47h0A6.48,6.48,0,0,1,109,62.91h58.68Z" style="fill:#ebebeb"></path><path d="M173.54,75.86H134.86a6.47,6.47,0,0,1-6.47-6.47h0a6.48,6.48,0,0,1,6.47-6.48h38.68Z" style="fill:#dbdbdb"></path><path d="M173.54,71.66H140.86a2.27,2.27,0,0,1-2.27-2.27h0a2.27,2.27,0,0,1,2.27-2.27h32.68Z" style="fill:#c7c7c7"></path><path d="M167.71,101.77H109a6.48,6.48,0,0,1-6.47-6.48h0A6.47,6.47,0,0,1,109,88.82h58.68Z" style="fill:#455a64"></path><path d="M173.54,101.77H134.86a6.48,6.48,0,0,1-6.47-6.48h0a6.47,6.47,0,0,1,6.47-6.47h38.68Z" style="fill:#37474f"></path><path d="M173.54,97.57H140.86a2.28,2.28,0,0,1-2.27-2.28h0A2.27,2.27,0,0,1,140.86,93h32.68Z" style="fill:#263238"></path><rect x="45.07" y="101.82" width="133.61" height="9.62" style="fill:#dbdbdb"></rect><path d="M115,101.77H56.32a6.47,6.47,0,0,1-6.47-6.48h0a6.47,6.47,0,0,1,6.47-6.47H115Z" style="fill:#0891B2"></path><path d="M120.83,101.77H82.15a6.48,6.48,0,0,1-6.47-6.48h0a6.47,6.47,0,0,1,6.47-6.47h38.68Z" style="fill:#0891B2"></path><path d="M120.83,101.77H82.15a6.48,6.48,0,0,1-6.47-6.48h0a6.47,6.47,0,0,1,6.47-6.47h38.68Z" style="opacity:0.1"></path><path d="M120.83,97.57H88.15a2.28,2.28,0,0,1-2.27-2.28h0A2.27,2.27,0,0,1,88.15,93h32.68Z" style="opacity:0.1"></path><path d="M115,88.82H56.32a6.47,6.47,0,0,1-6.47-6.48h0a6.47,6.47,0,0,1,6.47-6.48H115Z" style="fill:#ebebeb"></path><path d="M120.83,88.82H82.15a6.48,6.48,0,0,1-6.47-6.48h0a6.48,6.48,0,0,1,6.47-6.48h38.68Z" style="fill:#dbdbdb"></path><path d="M120.83,84.61H88.15a2.27,2.27,0,0,1-2.27-2.27h0a2.27,2.27,0,0,1,2.27-2.27h32.68Z" style="fill:#c7c7c7"></path><path d="M115,75.86H56.32a6.46,6.46,0,0,1-6.47-6.47h0a6.47,6.47,0,0,1,6.47-6.48H115Z" style="fill:#455a64"></path><path d="M120.83,75.86H82.15a6.47,6.47,0,0,1-6.47-6.47h0a6.48,6.48,0,0,1,6.47-6.48h38.68Z" style="fill:#37474f"></path><path d="M120.83,71.66H88.15a2.27,2.27,0,0,1-2.27-2.27h0a2.27,2.27,0,0,1,2.27-2.27h32.68Z" style="fill:#263238"></path></g><g id="freepik--Character--inject-14"><polygon points="212.55 301.92 215.43 319.19 234.94 424.57 238.09 424.57 223.9 319.19 221.8 301.92 212.55 301.92" style="fill:#dbdbdb"></polygon><polygon points="221.8 301.92 212.55 301.92 215.43 319.19 223.9 319.19 221.8 301.92" style="fill:#a6a6a6"></polygon><polygon points="151.27 424.57 154.42 424.57 173.93 319.19 176.81 301.92 167.56 301.92 165.46 319.19 151.27 424.57" style="fill:#dbdbdb"></polygon><polygon points="167.56 301.92 165.46 319.19 173.93 319.19 176.81 301.92 167.56 301.92" style="fill:#a6a6a6"></polygon><polygon points="92.75 424.57 95.89 424.57 115.4 319.19 118.28 301.92 109.03 301.92 106.94 319.19 92.75 424.57" style="fill:#dbdbdb"></polygon><polygon points="106.94 319.19 115.4 319.19 118.28 301.92 109.03 301.92 106.94 319.19" style="fill:#a6a6a6"></polygon><polygon points="97.73 310.04 240.72 310.04 240.72 294.97 187.19 294.97 169.2 190.31 103.19 190.31 97.73 310.04" style="fill:#dbdbdb"></polygon><polygon points="97.73 310.04 105.53 310.04 110.61 190.31 103.19 190.31 97.73 310.04" style="fill:#a6a6a6"></polygon><path d="M224.62,433.82c-2.77-.37-72.4-35.12-74.17-38.05-.21-.33,2.78-6.69,7.05-15.34,9.63-19.58,28.89-52.69,28.89-52.69l41.92,23.56L205.23,395s7.75,9.37,14,17.33c0,0,0,0,0,0,3.87,4.9,7.2,9.26,7.81,10.56C228.67,426.34,227.38,434.21,224.62,433.82Z" style="fill:#dd6a57"></path><path d="M150.45,395.77c1.77,2.93,71.41,37.68,74.17,38.05s4-7.47,2.45-10.88c-.6-1.3-3.93-5.66-7.8-10.56,0,0,0,0,0,0-3.33-4.2-7-8.8-9.82-12.21,2,3.05,5.41,8.61,3.43,9.69-3.64,2-34.86-14.22-55.38-29.39C153.23,389.07,150.23,395.43,150.45,395.77Z" style="fill:#263238"></path><path d="M213.51,391.14l-48.57-25.63S202,292.89,201,291.63c-3.4-4.39-44.43-2.39-62.15-20-18.77-18.65-4.43-45.2-4.43-45.2h49s-.45,13.3,1.67,15c1.39,1.16,73.47,8.12,76.29,27.14C266.3,301.53,213.51,391.14,213.51,391.14Z" style="fill:#455a64"></path><path d="M214.88,380.48c-5.48-3.32-11.1-6.36-16.75-9.39s-11.33-6-17.08-8.8c-3.24-1.59-6.56-3-9.81-4.59-.1-.05-.19.11-.09.16,2.84,1.52,5.6,3.2,8.43,4.73s5.6,3,8.41,4.5c5.66,3,11.37,5.9,17,8.85,3.2,1.66,6.45,3.23,9.72,4.76A.13.13,0,0,0,214.88,380.48Z" style="fill:#263238"></path><path d="M214.23,283.56c-1.21-2.49-4.41-2.85-6.79-3.45q-9.78-2.44-19.56-4.87c-11.55-2.86-23.45-5.56-33.8-11.68-5-2.92-9.74-6.62-12.22-11.95s-2.46-11-2.5-16.65c0-1.4.08-2.79.17-4.18,0-.12-.19-.11-.19,0-.36,5.55-.93,11.1.31,16.59a22.66,22.66,0,0,0,3.11,7.48,25.77,25.77,0,0,0,5.64,5.92c9.15,7.18,20.63,10.62,31.73,13.45,6.28,1.6,12.57,3.13,18.87,4.67l9.71,2.38a8.91,8.91,0,0,1,4,1.57,4.2,4.2,0,0,1,1.2,3.52,13.7,13.7,0,0,1-1,3.87c-.58,1.52-1.2,3-1.81,4.54q-1.78,4.43-3.68,8.81-3.81,8.84-7.92,17.55c-5.45,11.57-11.27,23-17.21,34.29-.74,1.41-1.46,2.84-2.19,4.25a.08.08,0,0,0,.14.08c6.36-11.2,12.3-22.66,18-34.23s11-23.14,15.5-35.1C214.5,288.32,215.27,285.72,214.23,283.56Z" style="fill:#263238"></path><path d="M355.31,427.24c-2.55,1.15-80,8.6-83.06,7.05-.37-.17-2.16-16.74-2.16-16.74-15.79-27.49-30.28-54.16-30.28-54.16l54.09-5.85,24.39,47.07s11.54,3.84,21.09,7.26l0,0c5.88,2.1,11,4,12.22,4.82C354.77,418.75,357.85,426.1,355.31,427.24Z" style="fill:#dd6a57"></path><path d="M269.75,417c.11.19.23.37.33.57,0,0,1.8,16.58,2.17,16.75,3.05,1.55,80.51-5.9,83.06-7.05s-.54-8.49-3.69-10.53c-1.21-.79-6.33-2.72-12.21-4.82h0c-3.06-1.1-6.33-2.24-9.35-3.28,3.21,1.65,7.07,4.06,6.11,5.67C333.91,418,295.28,420.11,269.75,417Z" style="fill:#263238"></path><path d="M314.52,393.79l-61,7.4S223.38,323,218.61,317.91c-2.41-2.59-11.58-5.46-30.89-9.7l-.11,0c-7.13-1.57-14.69-3.32-22.14-5.32-19.38-5.18-38-12-46.51-21.37-17.75-19.62,0-55.09,0-55.09h50s1.24,15.44-2.59,24.89c0,0,36.8,5.4,67.79,15.46,17.56,5.69,26.25,12.9,32.33,21.46C278.38,305,314.52,393.79,314.52,393.79Z" style="fill:#455a64"></path><path d="M305.94,384c-6.82.37-13.59,1.05-20.38,1.75s-13.56,1.49-20.32,2.42c-3.81.53-7.59,1.23-11.39,1.77-.12,0-.11.2,0,.18,3.42-.35,6.85-.53,10.27-.87s6.73-.69,10.09-1.06c6.78-.74,13.55-1.57,20.33-2.36,3.82-.44,7.62-1,11.42-1.57A.13.13,0,0,0,305.94,384Z" style="fill:#263238"></path><path d="M144.44,233.71a4.32,4.32,0,0,1-.28.67.07.07,0,0,0,0,.11c-.66,2-.94,4.23-1.57,6.28a9.91,9.91,0,0,1-3.8,5.43c-3.88,2.69-8.55,3.91-13.06,5-.14,0-.1.24,0,.25a25.22,25.22,0,0,0,7.71-1.18,20.37,20.37,0,0,0,6.49-3.11,10.2,10.2,0,0,0,3.72-5.61,33.68,33.68,0,0,0,.65-3.61,28.5,28.5,0,0,0,.45-4.22A.19.19,0,0,0,144.44,233.71Z" style="fill:#263238"></path><path d="M175.54,247.86a58.62,58.62,0,0,0-9,3.44l-.14.06a2.52,2.52,0,0,0,.14-.54c0-.22.06-.44.1-.65s0-.46.07-.68l0-.35v0a2.66,2.66,0,0,0,1.93-1,7.22,7.22,0,0,0,1.21-2.83c.33-1.28.64-2.56.92-3.86s.58-2.88.81-4.34a28.31,28.31,0,0,0,.49-4.3.2.2,0,0,0-.4-.05c-.34,1.33-.49,2.7-.74,4s-.54,2.69-.85,4-.64,2.67-1,4-.65,2.88-2,3.27c-2.8.79-1.54-5.51-1.42-6.74.29-2.86.46-5.77,1-8.6a.09.09,0,0,0-.18,0c-.61,2.6-1.31,5.15-1.77,7.79-.23,1.29-.39,2.59-.53,3.89a6,6,0,0,0,.26,3.35,2.43,2.43,0,0,0,1.85,1.37l-.09.3c-.06.21-.13.41-.18.63l-.15.63a1.51,1.51,0,0,0-.09.78.29.29,0,0,0,.14.17c-1.2.52-2.4,1-3.59,1.59a30.65,30.65,0,0,0-4.31,2.1c-.16.07,0,.3.12.26a32.55,32.55,0,0,0,4.52-1.63c1.5-.58,3-1.19,4.47-1.81a55.8,55.8,0,0,0,8.55-4A.15.15,0,0,0,175.54,247.86Z" style="fill:#263238"></path><path d="M248.5,362.31q-4.65-11.49-9.84-22.77t-10.95-22.31c-1.67-3.19-3.19-6.42-6.53-8.15a24.48,24.48,0,0,0-4.8-1.71q-2.92-.78-5.86-1.51c-15.93-4-56.62-16.5-64.27-19.5-6.21-2.43-12.42-5.25-17.59-9.54a28.31,28.31,0,0,1-6.31-7.18c-2-3.29-6.54-12.22.25-39.26,0-.12-.13-.21-.17-.1-5.41,19.27-4.27,29.76-3.28,33.58a24.35,24.35,0,0,0,4.44,9c4,5.12,9.66,8.67,15.45,11.43a160.38,160.38,0,0,0,21.45,8c15.77,4.94,49,14.12,52.95,15.14,3.55.91,7.69,1.63,10.23,4.51a23.55,23.55,0,0,1,3,4.9c1,1.84,1.9,3.68,2.83,5.53q2.86,5.69,5.62,11.42,10.83,22.65,19.73,46.18c.73,1.94,1.45,3.88,2.2,5.81a.12.12,0,0,0,.23-.07C254.66,377.81,251.61,370,248.5,362.31Z" style="fill:#263238"></path><path d="M224.56,328.07l-2.67-6.17c-.73-1.7-1.33-3.81-2.78-5.06s-3.41-1.65-5.15-2.2q-3.11-1-6.24-1.92c-4.79-1.4-9.64-2.73-14.56-3.65a.12.12,0,0,0,0,.23c4.06,1.44,8.21,2.68,12.32,4l6.12,1.91,3.17,1a18.37,18.37,0,0,1,2.6.95c1.81.92,2.42,2.81,3.18,4.55.89,2,1.77,4,2.65,6.05,1.75,4,3.48,8,5.27,12,2,4.41,3.92,8.86,6,13.22.13.27.59.07.48-.21C231.72,344.39,228.08,336.24,224.56,328.07Z" style="fill:#263238"></path><path d="M260.83,281c-3.74-4.48-8.84-7.86-14-10.5a111.48,111.48,0,0,0-16.72-6.64,298,298,0,0,0-39.46-9.44c-3.75-.66-7.5-1.25-11.27-1.8-1.9-.27-3.81-.52-5.72-.77s-3.67-.52-5.52-.65c-.12,0-.13.17,0,.2,3.23.81,6.57,1.36,9.85,2l9.89,1.87c6.59,1.25,13.18,2.54,19.72,4s13,3.21,19.43,5.19a130.87,130.87,0,0,1,17,6.35,67.57,67.57,0,0,1,8.45,4.69,65.22,65.22,0,0,1,7.77,6.08C260.67,282,261.16,281.44,260.83,281Z" style="fill:#263238"></path><path d="M162.24,112.4c-9.13,4.45-14.9,14.92-14.9,14.92s-10.38,9-10.63,15.71A11.77,11.77,0,0,0,141.2,153l.51-3.6s.71,5.08,7.42,9.34,17.16,5.31,23.06,4.48a20.41,20.41,0,0,0,9.63-4l-3.57,4.25s7.18,2.18,14-3.92-1.59-21.11-1.81-23.8,4.3-20.17-14.63-23.37C175.79,112.38,168.52,109.34,162.24,112.4Z" style="fill:#263238"></path><path d="M138.76,151.64a12.14,12.14,0,0,1-3-6.59,11,11,0,0,1,1.17-7.1c1.44-2.58,3.73-4.52,6-6.41s4.75-3.74,7-5.73c.12-.11,0-.29-.18-.22a66.79,66.79,0,0,0-6.45,4.35,30.88,30.88,0,0,0-5.58,4.81,11.9,11.9,0,0,0-3,6,11.6,11.6,0,0,0,.63,5.48,24.61,24.61,0,0,0,3.32,5.53C138.69,151.87,138.86,151.73,138.76,151.64Z" style="fill:#263238"></path><path d="M196.41,152.29c0-7-4.28-12.91-5.84-19.56-.84-3.59-1.16-7.37-2.7-10.76,0-.1-.2,0-.16.07,1.19,3,1.39,6.17,1.92,9.31a48,48,0,0,0,2.79,9.22c2.1,5.48,4.63,12,1.77,17.65-1.32,2.63-4,5.12-7.1,5a.1.1,0,0,0,0,.19,9.34,9.34,0,0,0,6.61-3.26A11.87,11.87,0,0,0,196.41,152.29Z" style="fill:#263238"></path><path d="M196.09,154.07a12.25,12.25,0,0,0,.76-7.34,17.37,17.37,0,0,0-3.49-6.53c-1.73-2.26-3.61-4.48-4.22-7.33a.09.09,0,0,0-.18,0c.92,4.67,4.59,8,6.38,12.23,2,4.89.17,10.36-3.58,13.86a20,20,0,0,1-8.22,4.46s0,.1,0,.09C188.75,162.22,193.94,159.23,196.09,154.07Z" style="fill:#263238"></path><path d="M164.82,172.06c14.42,11.08,35.49,25.28,50.43,26.82,11.92,1.24,42.16-11.79,54.82-21.54,4.47-3.44-12-19.23-18-20.44-3.62-.73-33.28,16.94-38.61,16.64-8.09-.45-29.48-8.89-46.6-13.35C157.83,157.85,155.85,165.17,164.82,172.06Z" style="fill:#dd6a57"></path><path d="M265.49,180.22c2.89-1.59,15.47-10.05,18.45-13.19s10.88-12.79,8.71-15.31-4.71.12-4.71.12,2.69-4.61.27-7-6.23,1.9-6.23,1.9,2.42-4.93-.16-7.09-5.7,2.74-5.7,2.74,2.42-4.4-.45-5.29c-3.46-1.07-7,7.56-10.55,10.77-.81.73-17.37,13.65-17.37,13.65Z" style="fill:#dd6a57"></path><path d="M276.4,142c-2.63,6.33-4.88,8.65-10.39,12.54-.11.08,0,.26.1.19,5.75-3.32,9-5.82,10.6-12.62C276.79,141.8,276.52,141.72,276.4,142Z" style="fill:#263238"></path><path d="M282.18,146.28c-3.3,6.35-5.72,8.88-11.2,13.38-.07.07,0,.2.11.15,5.74-4,8.91-6.54,11.38-13.31C282.58,146.19,282.33,146,282.18,146.28Z" style="fill:#263238"></path><path d="M287.65,152.06c-3.64,5.91-6.17,8.8-12,12.49a.13.13,0,0,0,.13.22c6.36-3.18,9.54-6.76,12.09-12.58C288,151.79,287.88,151.69,287.65,152.06Z" style="fill:#263238"></path><path d="M242.72,162s2.8-8.12,4.81-11.42,14.06-12.83,16.26-10.35c2.85,3.2-3,10.08-6.33,13.07,0,0,6.6,7.4,3.46,13.25S242.72,162,242.72,162Z" style="fill:#dd6a57"></path><path d="M264.29,141.4c.49,4.79-4.12,8.44-7.11,11.58a.39.39,0,0,0,.1.64c2.56,3.29,5.21,8.68,3.9,12.88a.1.1,0,0,0,.19.07c2-4.31-.16-9.81-3.19-13.24,3.12-3.17,7.57-7,6.15-11.94C264.32,141.36,264.28,141.37,264.29,141.4Z" style="fill:#263238"></path><path d="M185.39,190.2l1.05-25.81s-12.47-3.62-19.65-4.65c-9.51-1.36-12.24,1.85-4.56,10.78C167.36,176.49,185.39,190.2,185.39,190.2Z" style="fill:#0891B2"></path><path d="M183.05,187.48c-.11-3.77-.16-7.53-.05-11.3.06-1.88.15-3.75.26-5.63s.42-3.74.51-5.61c0-.11.17-.09.16,0-.19,1.86-.12,3.77-.2,5.64s-.16,3.76-.22,5.64c-.13,3.75-.26,7.51-.3,11.26A.08.08,0,0,1,183.05,187.48Z" style="fill:#263238"></path><path d="M185.81,180l-.42,10.23s-18-13.71-23.16-19.68c-3.59-4.17-4.9-7.09-4.31-8.88Z" style="fill:#263238"></path><path d="M184.18,232s-28.56,1.67-68.12,1.72c0,0,17.43-55.65,31.47-70.65,6.39-6.83,12.64-5.78,17.93-1.39,1.32,1.09,17.69,21.87,19.08,29.11,1.22,6.4-4,13.51-4,13.51Z" style="fill:#0891B2"></path><path d="M159.37,158.4h-4.6A9.8,9.8,0,0,1,159.37,158.4Zm6.09,3.24c-.26-.22-.52-.42-.79-.62h-15c-.32.25-.64.53-1,.83h17Zm2.42,2.84H146.26l-.65.83h22.93Zm2.71,3.46H143.71l-.55.83h28.05Zm2.58,3.46H141.52l-.48.83h32.74Zm2.48,3.45H139.56l-.45.83h37.11Zm2.36,3.46H137.74c-.15.27-.29.55-.42.83h41.24Zm2.22,3.46H136c-.12.28-.26.55-.39.83h45.12Zm2,3.46H134.39c-.13.27-.25.55-.38.83h48.67C182.54,185.79,182.4,185.51,182.24,185.23Zm1.66,3.45H132.83l-.36.83H184.2C184.11,189.25,184,189,183.9,188.68Zm.81,3.46H131.33L131,193h53.75C184.73,192.7,184.72,192.42,184.71,192.14Zm-54.83,3.46c-.12.28-.23.55-.34.83h54.7c.07-.28.13-.55.19-.83Zm-1.41,3.46-.33.83H183c.13-.27.24-.54.36-.83Zm-1.37,3.45c-.11.28-.22.56-.32.83h54.39c.15-.23.32-.51.51-.83ZM180.78,206h-55c-.1.28-.2.55-.31.83h55.44Zm.46,3.46H124.46c-.1.28-.21.55-.31.83h57.19Zm.45,3.46H123.18l-.3.83H181.8Zm.45,3.45h-60.2l-.3.83h60.61Zm.45,3.46H120.71c-.09.28-.19.55-.29.83H182.7Zm.45,3.46H119.51c-.09.28-.19.56-.28.83h63.92Zm.46,3.46H118.34c-.1.28-.19.56-.28.83H183.6Zm.45,3.45H117.19c-.09.29-.18.57-.27.83h67.13Zm-67.88,3.46a.12.12,0,0,1,0,.05q5.56,0,10.82-.05Z" style="fill:#030402;opacity:0.1"></path><path d="M145.17,166.16c-11.59,19.68-26.55,52.43-17.44,58.21,15,9.51,55.58,11.09,64.85,11.07,4,0,8.74-26.73,5.71-29.74s-45.41-.22-46-2.77c-.35-1.44,1.53-14.42,3.73-30.56C158.54,153.77,148.48,160.52,145.17,166.16Z" style="fill:#dd6a57"></path><path d="M189.85,204.51s11.85-2.77,19.69-4.21c4.37-.81,12-1.52,15.46-.64,5.21,1.31,26.15,10.12,24.12,15.24-1.83,4.64-18.86-5.21-18.86-5.21s18.06,8.42,14.83,13.6-21-8.52-21-8.52,18.36,9.08,14.18,13.89c-3.16,3.63-19.94-7.86-19.94-7.86s15.73,7.9,12.64,11.78c-3.41,4.29-19.57-5.35-19.57-5.35-9.51,8.54-17.53,8.72-23.25,8.16C186.76,235.26,189.85,204.51,189.85,204.51Z" style="fill:#dd6a57"></path><path d="M224.2,206.37c2.16.92,4.35,1.83,6.41,2.93s4.11,2.27,6.06,3.56a40.11,40.11,0,0,1,7.14,5.74c-4.1-3.59-11.45-7.65-13.52-8.75s-4.07-2.3-6.14-3.4C224.1,206.42,224.15,206.35,224.2,206.37Z" style="fill:#263238"></path><path d="M220.09,213.77c2.7,1.29,5.43,2.46,8.08,3.87s5,3,7.55,4.53c.19.12.06.18-.14.07-2.59-1.47-5.1-2.64-7.71-4.08s-5.17-3-7.82-4.33C220,213.81,220,213.75,220.09,213.77Z" style="fill:#263238"></path><path d="M215.41,219.49a66.75,66.75,0,0,1,11.91,6.85c.19.13,0,.2-.18.08-3.92-2.36-7-4.23-11.79-6.79C215.28,219.59,215.33,219.45,215.41,219.49Z" style="fill:#263238"></path><path d="M130.35,191.14,156,187.88s1.49-12.9,1.3-20.15c-.24-9.6-3.87-11.76-11.39-2.7C140.85,171.08,130.35,191.14,130.35,191.14Z" style="fill:#0891B2"></path><path d="M152.85,188.29c.27-.09,2.89-.51,3.08-.49.14-1.52.26-3,.41-4.56q.12-1.14.27-2.28c.11-.83.19-1.79.29-2.52,0-.12.16-.11.16,0,0,1-.09,1.7-.12,2.54s-.08,1.51-.14,2.25c-.14,1.59-.21,3.28-.42,4.86a26,26,0,0,1-3.53.29S152.81,188.3,152.85,188.29Z" style="fill:#263238"></path><path d="M132.64,188.38c3.69-.73,7.39-1.41,11.13-1.92q2.79-.39,5.59-.69c1.87-.2,3.76-.21,5.62-.43.11,0,.12.15,0,.16-1.87.12-3.74.51-5.6.74s-3.73.47-5.6.72c-3.72.5-7.44,1-11.15,1.58C132.55,188.56,132.54,188.4,132.64,188.38Z" style="fill:#263238"></path><path d="M155.2,160.29c.06,1.23,4.28,9.93,9.72,10.68,1.77.23,3.51-9.38,3.51-9.38l.29-.68,4.06-9.53-10.29-9.66-1.51-1.3s-.94,2.68-2.07,6c0,.16-.11.31-.16.48s-.14.36-.2.54c-.17.5-.35,1-.52,1.52s-.25.77-.37,1.18l-.38,1.22A66.47,66.47,0,0,0,155.2,160.29Z" style="fill:#dd6a57"></path><path d="M158.91,146.45a20.79,20.79,0,0,0,9.81,14.46l4.06-9.53-10.29-9.66-1.51-1.3S160,143.1,158.91,146.45Z" style="fill:#263238"></path><path d="M189.83,139.34c-2.25,18-13.31,18.73-17.2,18.25-3.53-.45-15.5-2.41-15.13-20.58s9.47-22.84,17.6-22.26S192.07,121.3,189.83,139.34Z" style="fill:#dd6a57"></path><path d="M187.67,135.91a11.9,11.9,0,0,1-1.18-.44,2,2,0,0,1-1.12-.67.65.65,0,0,1,.12-.78,1.59,1.59,0,0,1,1.62-.14,2.35,2.35,0,0,1,1.34,1A.69.69,0,0,1,187.67,135.91Z" style="fill:#263238"></path><path d="M175.34,134.06c.43,0,.83-.05,1.25-.08a2.11,2.11,0,0,0,1.26-.32.65.65,0,0,0,.12-.79,1.61,1.61,0,0,0-1.51-.6,2.39,2.39,0,0,0-1.59.61A.7.7,0,0,0,175.34,134.06Z" style="fill:#263238"></path><path d="M177.54,138.89s-.1.05-.11.1c-.11,1.23-.45,2.62-1.61,2.9,0,0,0,.07,0,.06C177.2,141.93,177.63,140.08,177.54,138.89Z" style="fill:#263238"></path><path d="M176.6,137.47c-2-.39-2.6,3.55-.79,3.92S178.24,137.8,176.6,137.47Z" style="fill:#263238"></path><path d="M175.79,137.55c-.38.17-.78.51-1.2.48s-.79-.5-1-.95c0,0-.06,0-.07,0a1.47,1.47,0,0,0,.82,1.82c.72.22,1.36-.36,1.68-1.09C176,137.71,176,137.49,175.79,137.55Z" style="fill:#263238"></path><path d="M184.37,139.74c0-.05.09.07.08.12-.25,1.22-.33,2.65.71,3.24,0,0,0,.08,0,.07C183.82,142.75,184,140.85,184.37,139.74Z" style="fill:#263238"></path><path d="M185.68,138.65c2,.19,1.47,4.15-.37,4S184,138.49,185.68,138.65Z" style="fill:#263238"></path><path d="M186.47,139c.29.25.55.67.92.75s.81-.31,1.14-.68c0,0,.06,0,.05,0-.08.76-.43,1.52-1.18,1.57s-1.08-.67-1.16-1.45C186.22,139.12,186.36,138.92,186.47,139Z" style="fill:#263238"></path><path d="M175.77,148.9c.23.34.43.79.87.92a3.13,3.13,0,0,0,1.36,0,0,0,0,0,1,0,.07,1.67,1.67,0,0,1-1.67.34,1.32,1.32,0,0,1-.73-1.27C175.63,148.85,175.73,148.85,175.77,148.9Z" style="fill:#263238"></path><path d="M180.8,147.61a5,5,0,0,1-2.15,1.39,2.33,2.33,0,0,1-1.38,0c-1-.35-.91-1.26-.66-2a5.28,5.28,0,0,1,.55-1.16A6.48,6.48,0,0,0,180.8,147.61Z" style="fill:#263238"></path><path d="M178.65,149a2.33,2.33,0,0,1-1.38,0c-1-.35-.91-1.26-.66-2A2.33,2.33,0,0,1,178.65,149Z" style="fill:#ff9cbd"></path><path d="M181.55,145.24s0,1.87-.15,2.73c0,.08-.23.09-.52.06h0a4.14,4.14,0,0,1-3.75-2.13.09.09,0,0,1,.15-.1,6.22,6.22,0,0,0,3.58,1.63c.1-.23-.07-3.19.07-3.18a7.38,7.38,0,0,1,1.89.74c.16-3.89-.3-7.77-.08-11.64a.12.12,0,0,1,.23,0,62,62,0,0,1,.62,12.53C183.55,146.36,181.87,145.44,181.55,145.24Z" style="fill:#263238"></path><path d="M158.66,138.57c2,.05,7.59-4.91,8.58-14.41,0,0-1.48,8.47-2.23,9.66s3.13-2.8,4-10.44a31.12,31.12,0,0,0,7.51,4.77c3.53,1.33,5.75,1.49,6,1.25s-4.9-2.38-6.19-4.17c0,0,9.24,5.32,13.65,6,.51.09,2-10.42-4.42-15.51s-17.77-1.2-20.94,1.37c0,0-3.48.18-7.66,4.94S156.53,138.51,158.66,138.57Z" style="fill:#263238"></path><path d="M173.22,144.37a5.71,5.71,0,1,1,7.15-5.48h0a5.7,5.7,0,0,1-5.75,5.66A5.37,5.37,0,0,1,173.22,144.37Zm2.7-10.3a4.37,4.37,0,0,0-1.21-.16,4.94,4.94,0,1,0,1.21.16Z" style="fill:#0891B2"></path><path d="M186.19,146.13c-2.11-.56-3.46-3.22-3-6.17a6.79,6.79,0,0,1,1.75-3.78,3.55,3.55,0,0,1,6,.85,6.82,6.82,0,0,1,.63,4.12c-.44,3.11-2.68,5.38-5,5A2.2,2.2,0,0,1,186.19,146.13Zm2.14-10.41a1.4,1.4,0,0,0-.28-.06,3,3,0,0,0-2.6,1.05,6.08,6.08,0,0,0-1.55,3.36c-.38,2.7.85,5.11,2.76,5.38s3.76-1.71,4.15-4.41a6,6,0,0,0-.56-3.65A3.14,3.14,0,0,0,188.33,135.72Z" style="fill:#0891B2"></path><path d="M180.09,139.52l-.4-.65c1-.6,3.07-1.28,4.24.39l-.62.44C182.26,138.2,180.18,139.47,180.09,139.52Z" style="fill:#0891B2"></path><path d="M154.71,137.42l-.62-.44c.21-.29,2.06-2.84,3.79-2.87s11.6,2.35,12,2.45l-.17.74c-2.87-.69-10.59-2.46-11.84-2.43S155.21,136.72,154.71,137.42Z" style="fill:#0891B2"></path><path d="M156.64,143.65a3.55,3.55,0,0,0,.78.39,2.71,2.71,0,0,0,.83.2,2.45,2.45,0,0,0,1.1-.11,3.31,3.31,0,0,0,.78-.37,3.69,3.69,0,0,0,.89-.86l0-5s-2.7-6.38-5.51-5.53S153.92,141.92,156.64,143.65Z" style="fill:#dd6a57"></path><path d="M155.94,134.88c-.05,0-.07.05,0,.08,1.89,1.28,2.57,3.44,2.91,5.59a1.69,1.69,0,0,0-2.39-1c-.06,0,0,.12,0,.12a1.88,1.88,0,0,1,1.89,1.08,9.26,9.26,0,0,1,.63,1.86c0,.2.41.17.39,0a.13.13,0,0,1,0-.06C160,139.89,158.72,135.75,155.94,134.88Z" style="fill:#263238"></path><path d="M157.05,143a.84.84,0,1,0,.85-.83A.83.83,0,0,0,157.05,143Z" style="fill:#fff"></path><path d="M155.62,141.35a.6.6,0,0,0,.59.61.59.59,0,0,0,.6-.59.61.61,0,0,0-.59-.61A.59.59,0,0,0,155.62,141.35Z" style="fill:#fff"></path></g><g id="freepik--Table--inject-14"><rect x="81.19" y="245.97" width="337.62" height="9.91" style="fill:#37474f"></rect><rect x="86.79" y="255.87" width="326.42" height="4.1" style="fill:#263238"></rect><rect x="101.04" y="259.97" width="45.87" height="187.04" style="fill:#37474f"></rect><rect x="101.05" y="259.97" width="45.87" height="21.88" style="fill:#263238"></rect><rect x="353.08" y="259.97" width="45.87" height="187.04" style="fill:#37474f"></rect><rect x="353.09" y="259.97" width="45.87" height="21.88" style="fill:#263238"></rect></g><g id="freepik--sewing-machine--inject-14"><path d="M335.65,436.73h-.48l.07-1c.1,0,10.54.55,14.2-7.83,5.47-12.5-4.66-63.06-8.47-82.09-.42-2.12-.78-3.91-1.05-5.32-2.22-11.43-1.71-28.56-1.21-45.12.55-18.34,1.12-37.32-2.15-47.63S323.1,237,322.67,237l0-1c.11,0,11.29.33,14.82,11.45,3.32,10.47,2.78,28.69,2.2,48-.5,16.51-1,33.58,1.19,44.9.27,1.41.63,3.2,1.05,5.31,4.19,20.92,14,69.9,8.41,82.69C346.89,436.24,337.84,436.73,335.65,436.73Z" style="fill:#263238"></path><polygon points="337.46 440.96 288.49 440.96 288.49 433.85 337.46 430.06 337.46 440.96" style="fill:#0891B2"></polygon><polygon points="241.53 208.34 241.03 222.14 240.53 208.34 241.53 208.34" style="fill:#a6a6a6"></polygon><path d="M311.08,144c-16.83,9.08-35.66,1.23-53.51,3.61-3.54.47-9,1.19-11.5,4s-3.23,7.2-3.64,10.73c-.53,4.62-.28,9.29-.4,13.93a52.4,52.4,0,0,1-2.8,15.07c-3.07,9.43-3.76,19-.06,28.35.08.22.38.07.31-.14-3.14-9.44-2.73-18.61.32-28a51.35,51.35,0,0,0,2.68-11.86c.35-4.49.09-9,.28-13.51s.62-10.52,3.77-14.09,10.08-3.93,14.44-4.23c8.87-.61,17.69.93,26.55,1.19,8.18.24,16.56-.54,23.64-4.95C311.23,144.06,311.16,143.93,311.08,144Z" style="fill:#dbdbdb"></path><path d="M243.8,160.62s-.69-9.4-.36-9.92,4.89-.87,5.4-.54.53,11,.53,11Z" style="fill:#0891B2"></path><path d="M249.72,203.33s-2.06,7.62-2.39,7.83l-13.82-1.1-.6-8.44Z" style="fill:#0891B2"></path><path d="M249.72,203.32s-.84,3.12-1.54,5.42c-5-.55-9.94-1.18-14.9-1.85l-.37-5.28Z" style="opacity:0.1"></path><polygon points="334.12 191.03 327.25 191.4 329.71 167.04 336.88 169.41 334.12 191.03" style="fill:#0891B2"></polygon><path d="M333.46,168.28c-.81,7.64-1.52,15.29-2.63,22.92l-3.58.19L329.72,167Z" style="opacity:0.1"></path><path d="M331.1,158.31c-.62,6.06-4.58,40.65-4.58,40.65s-7,1.84-7.34,2.35c0,0-2,13.25-2,15.74-.09,5.79.08,11.48.08,11.48l-21-.91s.17-4.94.3-11.21c.1-4.8-.3-25-.3-25s-37.29-1.84-38.16-1.09c-2,1.74-6.77,13.47-6.77,13.47l-21.84-2.17c-.88-3.37-3.21-43-3.21-43Z" style="fill:#0891B2"></path><path d="M317.24,228.53l-21-.91s.17-4.94.3-11.21c6.87.11,13.72.3,20.58.64C317.07,222.84,317.24,228.53,317.24,228.53Z" style="opacity:0.1"></path><rect x="229.51" y="225.48" width="93.17" height="20.48" style="fill:#0891B2"></rect><polygon points="322.68 237.09 229.51 238.09 229.51 234.56 322.68 235.56 322.68 237.09" style="opacity:0.1"></polygon><path d="M305.25,142.51c-.66.32-.31,14.66.06,14.6s8.12,0,8.5-.18,1.27-14.06.92-14.35S306.1,142.11,305.25,142.51Z" style="fill:#dbdbdb"></path><rect x="308.81" y="135.4" width="2" height="14.41" transform="translate(165.92 451.81) rotate(-89.76)" style="fill:#263238"></rect><rect x="308.44" y="150.17" width="2" height="14.41" transform="translate(150.78 466.16) rotate(-89.76)" style="fill:#263238"></rect><path d="M240.66,222.14a.14.14,0,0,0,0,.27A.14.14,0,0,0,240.66,222.14Z" style="fill:#9c9c9c"></path><path d="M311,174.7c-2.6,0-2.61,4,0,4S313.59,174.7,311,174.7Z" style="opacity:0.1"></path><path d="M241.52,191.25c-2.6,0-2.61,4,0,4S244.12,191.25,241.52,191.25Z" style="opacity:0.1"></path><path d="M306.67,206.32c-2.6,0-2.6,4,0,4S309.28,206.32,306.67,206.32Z" style="opacity:0.1"></path><path d="M236.25,225.48s8.18-4.06,15.24-3.74,13.71-1.55,20-1.94,10.75-1.43,25.39,5.68,20.8,53.22,28.91,65.42,30.5,32.36,30.5,53.2S355,385.37,355,385.37s-13.68-8.4-34.58,4.05c-10.59,6.31-29.93-1.88-36.36-3.54s-23.93,9.19-23.93,9.19,15.8-31.45,18.95-44.56c4.53-18.89-1.67-23.48-4.33-41.21s6.65-47.86-2.44-63.72S236.25,225.48,236.25,225.48Z" style="fill:#dbdbdb"></path><path d="M298.46,348.3c-.91,9.11-5.75,28.25-8.69,39.34-2.36-.75-4.34-1.4-5.72-1.76a10.51,10.51,0,0,0-4.79.28c4.13-11.08,10.56-29.85,12.35-46.21.93-8.47-1.86-27.27,0-29.27S299.79,335,298.46,348.3Z" style="fill:#c7c7c7"></path><path d="M344.71,382.67a38,38,0,0,0-16.64,2.93c1.87-5.26,5.37-17.72,7-40.67.75-10.78,3.33-18.45,7.32-5.48C345.46,349.52,345.05,372.77,344.71,382.67Z" style="fill:#c7c7c7"></path><path d="M284.66,252.82c-1.83.33-5.15-14.46-9-19.79-3.44-4.81-14.22-10.41-20.2-11.32,2.61-.14,5.16-.5,7.65-.87,4.12,1.5,10.26,4.29,13.21,8.29C281,235.44,286.49,252.49,284.66,252.82Z" style="fill:#c7c7c7"></path></g><g id="freepik--Threads--inject-14"><rect x="348.25" y="209.88" width="4.52" height="36.12" style="fill:#ebebeb"></rect><path d="M360,246H341a1.79,1.79,0,0,1-1.77-2.1l.14-.77,0-.19.67-3.73,0-.24.66-3.7.05-.26.66-3.71.05-.29.64-3.66.06-.33.66-3.68.05-.33.65-3.67.07-.36.64-3.67.07-.38.07-.38a1.77,1.77,0,0,1,1.76-1.47h8.65a1.79,1.79,0,0,1,1.77,1.47l.17,1,.1.53.73,4.15.09.51.73,4.15.09.5.73,4.14.09.49.74,4.15.08.48.73,4.13.09.46.73,4.16.08.42v.07A1.78,1.78,0,0,1,360,246Z" style="fill:#0891B2"></path><g style="opacity:0.1"><path d="M356.87,216.09a43.27,43.27,0,0,1-8.44-3h1.14a50.58,50.58,0,0,0,7.2,2.48Z"></path><path d="M357.69,220.75a44.63,44.63,0,0,1-13.41-5.44l.07-.38a50,50,0,0,0,13.25,5.31Z"></path><path d="M358.51,225.4a44.47,44.47,0,0,1-14.94-6.06l.07-.36a49.89,49.89,0,0,0,14.78,5.92Z"></path><path d="M359.33,230a44.48,44.48,0,0,1-16.46-6.69l.05-.33a50.18,50.18,0,0,0,16.32,6.53Z"></path><path d="M360.15,234.66a45.16,45.16,0,0,1-18-7.31l.06-.33a50,50,0,0,0,17.86,7.16Z"></path><path d="M361,239.25a44.62,44.62,0,0,1-19.51-7.95l.05-.29a50.08,50.08,0,0,0,19.37,7.78Z"></path><path d="M361.78,243.83a44.59,44.59,0,0,1-21-8.56l.05-.26a50.35,50.35,0,0,0,20.9,8.4Z"></path><path d="M354,246h-1.59a45.14,45.14,0,0,1-12.3-6.79l0-.24A49.64,49.64,0,0,0,354,246Z"></path><path d="M344,246h-.65a45.93,45.93,0,0,1-4-2.87l0-.19A50.83,50.83,0,0,0,344,246Z"></path></g><rect x="371.24" y="219.58" width="4.52" height="36.12" transform="translate(671.62 -89.61) rotate(99.87)" style="fill:#ebebeb"></rect><path d="M354.07,243.92l3.26-18.75a1.78,1.78,0,0,1,2.38-1.38l.73.27.18.05,3.56,1.3.23.08,3.53,1.28.25.09,3.54,1.28.28.1,3.5,1.27.31.11,3.52,1.28.31.11,3.5,1.27.35.12,3.51,1.27.36.14.36.12a1.79,1.79,0,0,1,1.15,2l-1.48,8.52a1.79,1.79,0,0,1-1.76,1.49H369.92l-4.21,0h-9.87A1.79,1.79,0,0,1,354.07,243.92Z" style="fill:#455a64"></path><path d="M384.08,245.94a41.66,41.66,0,0,1,4.42-7.8l-.2,1.13a50.13,50.13,0,0,0-3.68,6.66Z" style="fill:#263238"></path><path d="M379.34,246A44.48,44.48,0,0,1,387,233.67l.36.14a49.36,49.36,0,0,0-7.5,12.14Z" style="fill:#263238"></path><path d="M374.62,246a44.59,44.59,0,0,1,8.53-13.68l.35.12A50.32,50.32,0,0,0,375.13,246Z" style="fill:#263238"></path><path d="M369.92,246a44.42,44.42,0,0,1,9.42-15.07l.31.11a50.34,50.34,0,0,0-9.23,15Z" style="fill:#263238"></path><path d="M365.22,246a45.22,45.22,0,0,1,10.29-16.48l.31.11A50.09,50.09,0,0,0,365.71,246Z" style="fill:#263238"></path><path d="M360.56,246a44.62,44.62,0,0,1,11.17-17.87l.28.1A50.08,50.08,0,0,0,361,246Z" style="fill:#263238"></path><path d="M355.9,246a44.82,44.82,0,0,1,12-19.25l.25.09A50.36,50.36,0,0,0,356.34,246Z" style="fill:#263238"></path><path d="M355.11,237.93l.27-1.56a45.57,45.57,0,0,1,8.8-11l.23.08A49.76,49.76,0,0,0,355.11,237.93Z" style="fill:#263238"></path><path d="M356.82,228.11l.11-.63a40.47,40.47,0,0,1,3.51-3.42l.18.05A53,53,0,0,0,356.82,228.11Z" style="fill:#263238"></path></g></svg>