<svg width="200" height="200" viewBox="0 0 200 200" fill="none" xmlns="http://www.w3.org/2000/svg">
<rect width="200" height="200" fill="#E5E5E5"/>
<rect width="200" height="200" fill="white"/>
<rect width="200" height="200" fill="black"/>
<circle cx="100.5" cy="86.5" r="73" stroke="#CACACA"/>
<path d="M64.0742 123.68C63.944 123.224 63.9115 122.605 63.9766 121.824C64.1068 120.978 64.237 120.132 64.3672 119.285C64.5625 118.439 64.7578 117.69 64.9531 117.039C65.1484 116.388 65.2461 116.03 65.2461 115.965L87.3164 58.543C87.7721 57.3711 88.1953 56.9479 88.5859 57.2734C88.9766 57.5339 89.2695 58.1523 89.4648 59.1289C89.7253 60.0404 89.8555 61.1146 89.8555 62.3516C89.8555 63.5234 89.7253 64.4674 89.4648 65.1836C87.3815 70.1315 85.2656 75.112 83.1172 80.125C81.0339 85.0729 79.0156 90.0859 77.0625 95.1641C75.1745 100.177 73.3841 105.255 71.6914 110.398C69.9987 115.477 68.5664 120.652 67.3945 125.926C66.8737 126.251 66.418 126.382 66.0273 126.316C65.7018 126.251 65.3763 126.089 65.0508 125.828C64.7904 125.503 64.5625 125.145 64.3672 124.754C64.237 124.363 64.1393 124.005 64.0742 123.68ZM94.9336 125.926C90.9622 124.363 88.2279 122.247 86.7305 119.578C85.2331 116.909 84.6146 113.947 84.875 110.691C85.2005 107.371 86.2422 103.855 88 100.145C89.8229 96.3685 92.0365 92.5924 94.6406 88.8164C97.3099 85.0404 100.24 81.362 103.43 77.7812C106.62 74.2005 109.777 70.9128 112.902 67.918C116.027 64.9232 118.957 62.319 121.691 60.1055C124.426 57.8919 126.639 56.2643 128.332 55.2227C130.676 53.7904 132.629 53.1068 134.191 53.1719C135.754 53.1719 136.991 53.6602 137.902 54.6367C138.879 55.5482 139.53 56.8503 139.855 58.543C140.246 60.1706 140.409 61.9284 140.344 63.8164C140.344 65.6393 140.148 67.4948 139.758 69.3828C139.432 71.2057 138.977 72.8008 138.391 74.168C137.87 75.5352 137.284 76.5443 136.633 77.1953C136.047 77.8464 135.461 77.8789 134.875 77.293C134.81 76.7721 134.875 75.9909 135.07 74.9492C135.266 73.8424 135.493 72.6055 135.754 71.2383C136.079 69.8711 136.372 68.4714 136.633 67.0391C136.893 65.6068 137.056 64.3047 137.121 63.1328C137.251 61.8958 137.219 60.8542 137.023 60.0078C136.893 59.1615 136.535 58.6732 135.949 58.543C133.671 57.957 130.936 58.5104 127.746 60.2031C124.621 61.8307 121.333 64.207 117.883 67.332C114.497 70.3919 111.112 73.9727 107.727 78.0742C104.406 82.1107 101.379 86.2773 98.6445 90.5742C95.9102 94.8711 93.6641 99.0703 91.9062 103.172C90.1484 107.208 89.1393 110.789 88.8789 113.914C88.6836 116.974 89.3672 119.35 90.9297 121.043C92.5573 122.671 95.3893 123.191 99.4258 122.605C103.137 122.085 106.555 120.783 109.68 118.699C112.87 116.551 115.93 114.207 118.859 111.668C121.854 109.064 124.816 106.525 127.746 104.051C130.676 101.512 133.736 99.5911 136.926 98.2891C138.098 97.8333 139.009 97.9961 139.66 98.7773C140.376 99.5586 140.572 100.503 140.246 101.609C139.855 102.716 138.684 104.181 136.73 106.004C134.842 107.827 132.466 109.747 129.602 111.766C126.802 113.719 123.71 115.704 120.324 117.723C116.939 119.676 113.618 121.368 110.363 122.801C107.173 124.233 104.178 125.275 101.379 125.926C98.6445 126.577 96.4961 126.577 94.9336 125.926Z" fill="white"/>
<path d="M38.2148 185.336C38.1888 185.245 38.1823 185.121 38.1953 184.965C38.2214 184.796 38.2474 184.626 38.2734 184.457C38.3125 184.288 38.3516 184.138 38.3906 184.008C38.4297 183.878 38.4492 183.806 38.4492 183.793L42.8633 172.309C42.9544 172.074 43.0391 171.99 43.1172 172.055C43.1953 172.107 43.2539 172.23 43.293 172.426C43.3451 172.608 43.3711 172.823 43.3711 173.07C43.3711 173.305 43.3451 173.493 43.293 173.637C42.8763 174.626 42.4531 175.622 42.0234 176.625C41.6068 177.615 41.2031 178.617 40.8125 179.633C40.4349 180.635 40.0768 181.651 39.7383 182.68C39.3997 183.695 39.1133 184.73 38.8789 185.785C38.7747 185.85 38.6836 185.876 38.6055 185.863C38.5404 185.85 38.4753 185.818 38.4102 185.766C38.3581 185.701 38.3125 185.629 38.2734 185.551C38.2474 185.473 38.2279 185.401 38.2148 185.336ZM42.8633 185.785C42.8372 185.772 42.8372 185.622 42.8633 185.336C42.9023 185.036 42.9544 184.665 43.0195 184.223C43.0846 183.78 43.1693 183.292 43.2734 182.758C43.3776 182.224 43.4883 181.716 43.6055 181.234C43.7227 180.74 43.8464 180.31 43.9766 179.945C44.1198 179.568 44.2565 179.307 44.3867 179.164C44.4779 179.073 44.569 179.073 44.6602 179.164C44.7513 179.242 44.8424 179.346 44.9336 179.477C45.0247 179.594 45.1159 179.704 45.207 179.809C45.2982 179.9 45.3958 179.906 45.5 179.828C45.8646 179.32 46.2617 178.839 46.6914 178.383C47.1341 177.914 47.6224 177.51 48.1562 177.172C48.2083 177.133 48.3516 177.074 48.5859 176.996C48.8203 176.905 49.0872 176.82 49.3867 176.742C49.6862 176.651 49.9922 176.579 50.3047 176.527C50.6302 176.462 50.9036 176.436 51.125 176.449C51.3594 176.449 51.5156 176.508 51.5938 176.625C51.6849 176.729 51.6458 176.911 51.4766 177.172C50.6953 177.185 49.9661 177.413 49.2891 177.855C48.612 178.298 47.987 178.845 47.4141 179.496C46.8411 180.147 46.3203 180.857 45.8516 181.625C45.3828 182.38 44.9727 183.083 44.6211 183.734C44.2826 184.385 43.9961 184.926 43.7617 185.355C43.5404 185.785 43.3776 186 43.2734 186C43.2604 186 43.2018 185.974 43.0977 185.922C42.9935 185.857 42.9154 185.811 42.8633 185.785ZM52.3555 185.785C52.1992 185.681 52.1927 185.544 52.3359 185.375C52.4922 185.193 52.7331 185.004 53.0586 184.809C53.3971 184.6 53.7878 184.385 54.2305 184.164C54.6732 183.943 55.0964 183.734 55.5 183.539C55.9167 183.344 56.2812 183.174 56.5938 183.031C56.9062 182.875 57.1081 182.758 57.1992 182.68C57.6289 182.315 57.8503 182.016 57.8633 181.781C57.8893 181.534 57.7852 181.339 57.5508 181.195C57.3164 181.039 56.9844 180.922 56.5547 180.844C56.138 180.753 55.7018 180.674 55.2461 180.609C54.8034 180.531 54.3737 180.453 53.957 180.375C53.5534 180.297 53.2474 180.193 53.0391 180.062C52.8307 179.932 52.7591 179.763 52.8242 179.555C52.9023 179.333 53.1888 179.053 53.6836 178.715C53.8659 178.585 54.1328 178.396 54.4844 178.148C54.8359 177.901 55.2135 177.647 55.6172 177.387C56.0339 177.126 56.444 176.892 56.8477 176.684C57.2513 176.475 57.5898 176.339 57.8633 176.273C58.0065 176.247 58.1497 176.26 58.293 176.312C58.4492 176.365 58.5729 176.443 58.6641 176.547C58.7552 176.638 58.7943 176.742 58.7812 176.859C58.7812 176.977 58.6966 177.081 58.5273 177.172C57.7852 177.589 57.069 177.979 56.3789 178.344C55.7018 178.708 55.0182 179.125 54.3281 179.594C54.2891 179.698 54.2956 179.789 54.3477 179.867C54.4128 179.945 54.4844 180.004 54.5625 180.043C55.9427 180.186 56.9779 180.388 57.668 180.648C58.3711 180.909 58.8138 181.195 58.9961 181.508C59.1914 181.82 59.1719 182.152 58.9375 182.504C58.7031 182.855 58.3516 183.201 57.8828 183.539C57.4271 183.878 56.8997 184.197 56.3008 184.496C55.7018 184.796 55.1224 185.049 54.5625 185.258C54.0156 185.466 53.5339 185.622 53.1172 185.727C52.7005 185.831 52.4466 185.85 52.3555 185.785ZM59.7383 185.551C59.7253 185.525 59.7188 185.492 59.7188 185.453C59.7188 185.401 59.7253 185.362 59.7383 185.336C59.7904 185.232 59.875 185.056 59.9922 184.809C60.1224 184.548 60.2526 184.281 60.3828 184.008C60.526 183.721 60.6628 183.454 60.793 183.207C60.9232 182.96 61.0143 182.784 61.0664 182.68C61.0924 182.641 61.1576 182.53 61.2617 182.348C61.3789 182.165 61.5156 181.944 61.6719 181.684C61.8411 181.41 62.0169 181.111 62.1992 180.785C62.3945 180.46 62.5833 180.141 62.7656 179.828C62.9609 179.516 63.1367 179.223 63.293 178.949C63.4622 178.676 63.599 178.448 63.7031 178.266C63.9635 177.836 64.263 177.328 64.6016 176.742C64.9531 176.156 65.3112 175.564 65.6758 174.965C66.0404 174.366 66.3984 173.786 66.75 173.227C67.1146 172.667 67.4466 172.204 67.7461 171.84C68.0456 171.475 68.2995 171.234 68.5078 171.117C68.7161 171 68.8594 171.078 68.9375 171.352V171.977C68.8464 172.12 68.7227 172.309 68.5664 172.543C68.4102 172.764 68.2474 173.005 68.0781 173.266C67.9219 173.513 67.7656 173.754 67.6094 173.988C67.4531 174.223 67.3359 174.405 67.2578 174.535C67.1406 174.717 66.9518 175.01 66.6914 175.414C66.431 175.818 66.138 176.273 65.8125 176.781C65.487 177.289 65.1549 177.823 64.8164 178.383C64.4779 178.93 64.1719 179.444 63.8984 179.926C63.625 180.408 63.4036 180.824 63.2344 181.176C63.0781 181.514 63.0195 181.729 63.0586 181.82C63.3711 181.729 63.7031 181.566 64.0547 181.332C64.4193 181.085 64.7839 180.824 65.1484 180.551C65.513 180.277 65.8776 180.017 66.2422 179.77C66.6068 179.509 66.9453 179.307 67.2578 179.164C67.5703 179.203 67.8438 179.32 68.0781 179.516C68.3125 179.711 68.4818 179.958 68.5859 180.258C68.5729 180.375 68.5599 180.596 68.5469 180.922C68.5469 181.234 68.5469 181.566 68.5469 181.918C68.5469 182.27 68.5469 182.602 68.5469 182.914C68.5599 183.227 68.5729 183.441 68.5859 183.559C68.599 183.702 68.6641 183.884 68.7812 184.105C68.8984 184.314 69.0221 184.529 69.1523 184.75C69.2956 184.958 69.4193 185.141 69.5234 185.297C69.6406 185.453 69.6927 185.538 69.6797 185.551C69.4193 185.642 69.1719 185.648 68.9375 185.57C68.7031 185.479 68.4948 185.342 68.3125 185.16C68.1432 184.965 68 184.75 67.8828 184.516C67.7786 184.268 67.7135 184.027 67.6875 183.793C67.6745 183.676 67.6549 183.461 67.6289 183.148C67.6029 182.823 67.5768 182.484 67.5508 182.133C67.5378 181.781 67.5182 181.449 67.4922 181.137C67.4792 180.824 67.4727 180.609 67.4727 180.492L67.0234 180.258C66.9453 180.219 66.8086 180.251 66.6133 180.355C66.431 180.46 66.2161 180.603 65.9688 180.785C65.7214 180.967 65.4609 181.176 65.1875 181.41C64.9141 181.645 64.6536 181.866 64.4062 182.074C64.1719 182.283 63.9701 182.465 63.8008 182.621C63.6315 182.777 63.5273 182.875 63.4883 182.914C63.3841 183.018 63.1953 183.207 62.9219 183.48C62.6484 183.741 62.3555 184.027 62.043 184.34C61.7435 184.639 61.457 184.926 61.1836 185.199C60.9232 185.473 60.7409 185.668 60.6367 185.785C60.4544 185.824 60.2786 185.844 60.1094 185.844C59.9531 185.831 59.8294 185.733 59.7383 185.551ZM71.457 185.551C71.1445 185.29 70.9688 184.906 70.9297 184.398C70.9036 183.891 70.9753 183.318 71.1445 182.68C71.3268 182.042 71.5872 181.378 71.9258 180.688C72.2773 179.984 72.681 179.32 73.1367 178.695C73.5924 178.057 74.0872 177.491 74.6211 176.996C75.1549 176.488 75.6888 176.117 76.2227 175.883C76.7565 175.635 77.2773 175.551 77.7852 175.629C78.293 175.694 78.7552 175.987 79.1719 176.508C79.4323 176.833 79.5885 177.165 79.6406 177.504C79.6927 177.829 79.6862 178.168 79.6211 178.52C79.556 178.858 79.4518 179.21 79.3086 179.574C79.1654 179.926 79.0221 180.284 78.8789 180.648C78.7487 181.013 78.638 181.384 78.5469 181.762C78.4688 182.139 78.4557 182.523 78.5078 182.914C78.5729 183.409 78.7943 183.702 79.1719 183.793C79.5495 183.884 79.9987 183.858 80.5195 183.715C81.0534 183.572 81.6133 183.344 82.1992 183.031C82.7852 182.719 83.3255 182.406 83.8203 182.094C84.3281 181.781 84.7448 181.508 85.0703 181.273C85.4089 181.039 85.5781 180.922 85.5781 180.922C85.9427 180.844 86.1445 180.87 86.1836 181C86.2357 181.117 86.1641 181.299 85.9688 181.547C85.7865 181.781 85.5065 182.055 85.1289 182.367C84.7513 182.667 84.3216 182.96 83.8398 183.246C83.3581 183.533 82.8438 183.793 82.2969 184.027C81.75 184.262 81.2161 184.424 80.6953 184.516C80.1745 184.594 79.6797 184.587 79.2109 184.496C78.7552 184.392 78.3776 184.158 78.0781 183.793C77.9349 183.637 77.8242 183.48 77.7461 183.324C77.681 183.168 77.5703 183.031 77.4141 182.914C77.2188 183.096 76.9844 183.337 76.7109 183.637C76.4375 183.923 76.138 184.216 75.8125 184.516C75.5 184.802 75.1615 185.076 74.7969 185.336C74.4453 185.596 74.0807 185.792 73.7031 185.922C73.3255 186.052 72.9414 186.098 72.5508 186.059C72.1732 186.02 71.8086 185.85 71.457 185.551ZM71.6719 184.887C71.7891 185.303 72.0495 185.499 72.4531 185.473C72.8568 185.434 73.3255 185.232 73.8594 184.867C74.3932 184.503 74.9466 184.008 75.5195 183.383C76.0924 182.745 76.6068 182.042 77.0625 181.273C77.5182 180.492 77.8633 179.672 78.0977 178.812C78.3451 177.953 78.4102 177.107 78.293 176.273C77.9805 176.026 77.5898 176.02 77.1211 176.254C76.6523 176.475 76.151 176.846 75.6172 177.367C75.0964 177.875 74.5755 178.487 74.0547 179.203C73.5469 179.906 73.0977 180.622 72.707 181.352C72.3164 182.068 72.0169 182.745 71.8086 183.383C71.6133 184.021 71.5677 184.522 71.6719 184.887ZM85.832 185.785C85.819 185.759 85.8125 185.688 85.8125 185.57C85.8125 185.453 85.819 185.375 85.832 185.336C85.8711 185.193 85.9427 184.945 86.0469 184.594C86.151 184.229 86.2617 183.852 86.3789 183.461C86.4961 183.057 86.6068 182.68 86.7109 182.328C86.8151 181.977 86.8867 181.729 86.9258 181.586C86.9779 181.404 87.0365 181.195 87.1016 180.961C87.1667 180.714 87.1797 180.479 87.1406 180.258C86.9453 180.232 86.7044 180.258 86.418 180.336C86.1315 180.401 85.8451 180.46 85.5586 180.512C85.2852 180.551 85.0247 180.551 84.7773 180.512C84.543 180.46 84.3737 180.303 84.2695 180.043C84.4258 179.717 84.6602 179.509 84.9727 179.418C85.2852 179.314 85.6237 179.242 85.9883 179.203C86.3529 179.164 86.6979 179.105 87.0234 179.027C87.362 178.949 87.6289 178.773 87.8242 178.5C87.9414 178.161 88.0781 177.751 88.2344 177.27C88.4036 176.775 88.5794 176.26 88.7617 175.727C88.944 175.193 89.1393 174.665 89.3477 174.145C89.569 173.624 89.7969 173.161 90.0312 172.758C90.1745 172.667 90.2917 172.66 90.3828 172.738C90.474 172.816 90.5391 172.934 90.5781 173.09C90.6302 173.233 90.6628 173.383 90.6758 173.539C90.6888 173.695 90.6888 173.799 90.6758 173.852C90.5977 174.19 90.4609 174.555 90.2656 174.945C90.0833 175.323 89.9076 175.707 89.7383 176.098C89.582 176.488 89.4518 176.879 89.3477 177.27C89.2565 177.66 89.2565 178.031 89.3477 178.383H93.5469C93.5599 178.383 93.5924 178.428 93.6445 178.52C93.6966 178.598 93.7422 178.663 93.7812 178.715C93.8464 178.897 93.7747 179.021 93.5664 179.086C93.3581 179.151 93.0781 179.197 92.7266 179.223C92.375 179.236 91.9714 179.249 91.5156 179.262C91.0729 179.262 90.6432 179.294 90.2266 179.359C89.8229 179.411 89.4583 179.509 89.1328 179.652C88.8073 179.783 88.5859 179.984 88.4688 180.258C88.1302 181.13 87.8177 182.009 87.5312 182.895C87.2448 183.767 86.9714 184.652 86.7109 185.551C86.6849 185.59 86.6328 185.655 86.5547 185.746C86.4766 185.824 86.3919 185.896 86.3008 185.961C86.2096 186.013 86.1185 186.033 86.0273 186.02C85.9492 186.007 85.8841 185.928 85.832 185.785ZM92.668 185.551C92.6549 185.525 92.6484 185.492 92.6484 185.453C92.6484 185.401 92.6549 185.362 92.668 185.336C92.7201 185.232 92.8047 185.056 92.9219 184.809C93.0521 184.548 93.1823 184.281 93.3125 184.008C93.4557 183.721 93.5924 183.454 93.7227 183.207C93.8529 182.96 93.944 182.784 93.9961 182.68C94.0221 182.641 94.0872 182.53 94.1914 182.348C94.3086 182.165 94.4453 181.944 94.6016 181.684C94.7708 181.41 94.9466 181.111 95.1289 180.785C95.3242 180.46 95.513 180.141 95.6953 179.828C95.8906 179.516 96.0664 179.223 96.2227 178.949C96.3919 178.676 96.5286 178.448 96.6328 178.266C96.8932 177.836 97.1927 177.328 97.5312 176.742C97.8828 176.156 98.2409 175.564 98.6055 174.965C98.9701 174.366 99.3281 173.786 99.6797 173.227C100.044 172.667 100.376 172.204 100.676 171.84C100.975 171.475 101.229 171.234 101.438 171.117C101.646 171 101.789 171.078 101.867 171.352V171.977C101.776 172.12 101.652 172.309 101.496 172.543C101.34 172.764 101.177 173.005 101.008 173.266C100.852 173.513 100.695 173.754 100.539 173.988C100.383 174.223 100.266 174.405 100.188 174.535C100.07 174.717 99.8815 175.01 99.6211 175.414C99.3607 175.818 99.0677 176.273 98.7422 176.781C98.4167 177.289 98.0846 177.823 97.7461 178.383C97.4076 178.93 97.1016 179.444 96.8281 179.926C96.5547 180.408 96.3333 180.824 96.1641 181.176C96.0078 181.514 95.9492 181.729 95.9883 181.82C96.3008 181.729 96.6328 181.566 96.9844 181.332C97.349 181.085 97.7135 180.824 98.0781 180.551C98.4427 180.277 98.8073 180.017 99.1719 179.77C99.5365 179.509 99.875 179.307 100.188 179.164C100.5 179.203 100.773 179.32 101.008 179.516C101.242 179.711 101.411 179.958 101.516 180.258C101.503 180.375 101.49 180.596 101.477 180.922C101.477 181.234 101.477 181.566 101.477 181.918C101.477 182.27 101.477 182.602 101.477 182.914C101.49 183.227 101.503 183.441 101.516 183.559C101.529 183.702 101.594 183.884 101.711 184.105C101.828 184.314 101.952 184.529 102.082 184.75C102.225 184.958 102.349 185.141 102.453 185.297C102.57 185.453 102.622 185.538 102.609 185.551C102.349 185.642 102.102 185.648 101.867 185.57C101.633 185.479 101.424 185.342 101.242 185.16C101.073 184.965 100.93 184.75 100.812 184.516C100.708 184.268 100.643 184.027 100.617 183.793C100.604 183.676 100.585 183.461 100.559 183.148C100.533 182.823 100.507 182.484 100.48 182.133C100.467 181.781 100.448 181.449 100.422 181.137C100.409 180.824 100.402 180.609 100.402 180.492L99.9531 180.258C99.875 180.219 99.7383 180.251 99.543 180.355C99.3607 180.46 99.1458 180.603 98.8984 180.785C98.651 180.967 98.3906 181.176 98.1172 181.41C97.8438 181.645 97.5833 181.866 97.3359 182.074C97.1016 182.283 96.8997 182.465 96.7305 182.621C96.5612 182.777 96.457 182.875 96.418 182.914C96.3138 183.018 96.125 183.207 95.8516 183.48C95.5781 183.741 95.2852 184.027 94.9727 184.34C94.6732 184.639 94.3867 184.926 94.1133 185.199C93.8529 185.473 93.6706 185.668 93.5664 185.785C93.3841 185.824 93.2083 185.844 93.0391 185.844C92.8828 185.831 92.7591 185.733 92.668 185.551ZM115.871 185.785C115.077 185.473 114.53 185.049 114.23 184.516C113.931 183.982 113.807 183.389 113.859 182.738C113.924 182.074 114.133 181.371 114.484 180.629C114.849 179.874 115.292 179.118 115.812 178.363C116.346 177.608 116.932 176.872 117.57 176.156C118.208 175.44 118.84 174.783 119.465 174.184C120.09 173.585 120.676 173.064 121.223 172.621C121.77 172.178 122.212 171.853 122.551 171.645C123.02 171.358 123.41 171.221 123.723 171.234C124.035 171.234 124.283 171.332 124.465 171.527C124.66 171.71 124.79 171.97 124.855 172.309C124.934 172.634 124.966 172.986 124.953 173.363C124.953 173.728 124.914 174.099 124.836 174.477C124.771 174.841 124.68 175.16 124.562 175.434C124.458 175.707 124.341 175.909 124.211 176.039C124.094 176.169 123.977 176.176 123.859 176.059C123.846 175.954 123.859 175.798 123.898 175.59C123.938 175.368 123.983 175.121 124.035 174.848C124.1 174.574 124.159 174.294 124.211 174.008C124.263 173.721 124.296 173.461 124.309 173.227C124.335 172.979 124.328 172.771 124.289 172.602C124.263 172.432 124.191 172.335 124.074 172.309C123.618 172.191 123.072 172.302 122.434 172.641C121.809 172.966 121.151 173.441 120.461 174.066C119.784 174.678 119.107 175.395 118.43 176.215C117.766 177.022 117.16 177.855 116.613 178.715C116.066 179.574 115.617 180.414 115.266 181.234C114.914 182.042 114.712 182.758 114.66 183.383C114.621 183.995 114.758 184.47 115.07 184.809C115.396 185.134 115.962 185.238 116.77 185.121C117.512 185.017 118.195 184.757 118.82 184.34C119.458 183.91 120.07 183.441 120.656 182.934C121.255 182.413 121.848 181.905 122.434 181.41C123.02 180.902 123.632 180.518 124.27 180.258C124.504 180.167 124.686 180.199 124.816 180.355C124.96 180.512 124.999 180.701 124.934 180.922C124.855 181.143 124.621 181.436 124.23 181.801C123.853 182.165 123.378 182.549 122.805 182.953C122.245 183.344 121.626 183.741 120.949 184.145C120.272 184.535 119.608 184.874 118.957 185.16C118.319 185.447 117.72 185.655 117.16 185.785C116.613 185.915 116.184 185.915 115.871 185.785ZM127.688 185.785C127.141 185.564 126.796 185.232 126.652 184.789C126.522 184.346 126.529 183.858 126.672 183.324C126.815 182.777 127.062 182.217 127.414 181.645C127.766 181.059 128.156 180.525 128.586 180.043C129.016 179.561 129.445 179.158 129.875 178.832C130.318 178.493 130.695 178.305 131.008 178.266C131.815 178.161 132.447 178.22 132.902 178.441C133.371 178.65 133.69 178.956 133.859 179.359C134.029 179.763 134.074 180.238 133.996 180.785C133.918 181.319 133.742 181.859 133.469 182.406C133.208 182.953 132.863 183.48 132.434 183.988C132.017 184.496 131.548 184.926 131.027 185.277C130.52 185.616 129.979 185.844 129.406 185.961C128.833 186.065 128.26 186.007 127.688 185.785ZM127.473 184.672C127.577 185.089 127.798 185.323 128.137 185.375C128.475 185.414 128.866 185.329 129.309 185.121C129.764 184.9 130.24 184.587 130.734 184.184C131.229 183.767 131.678 183.318 132.082 182.836C132.499 182.354 132.837 181.872 133.098 181.391C133.371 180.896 133.501 180.466 133.488 180.102C133.488 179.737 133.312 179.464 132.961 179.281C132.622 179.086 132.049 179.047 131.242 179.164C131.06 179.333 130.826 179.542 130.539 179.789C130.253 180.023 129.953 180.284 129.641 180.57C129.341 180.857 129.042 181.169 128.742 181.508C128.443 181.833 128.182 182.172 127.961 182.523C127.74 182.875 127.577 183.233 127.473 183.598C127.382 183.962 127.382 184.32 127.473 184.672ZM142.941 185.551C142.447 185.212 142.089 184.796 141.867 184.301C141.646 183.793 141.483 183.253 141.379 182.68H141.164C140.109 183.539 139.191 184.184 138.41 184.613C137.642 185.043 136.991 185.31 136.457 185.414C135.923 185.505 135.507 185.46 135.207 185.277C134.908 185.095 134.712 184.835 134.621 184.496C134.543 184.145 134.562 183.734 134.68 183.266C134.797 182.797 134.999 182.328 135.285 181.859C135.572 181.378 135.943 180.922 136.398 180.492C136.854 180.062 137.375 179.711 137.961 179.438C138.56 179.164 139.217 178.995 139.934 178.93C140.663 178.852 141.444 178.93 142.277 179.164L142.492 178.93L145.129 173.637C145.48 173.689 145.689 173.845 145.754 174.105C145.819 174.366 145.812 174.652 145.734 174.965C145.669 175.277 145.565 175.583 145.422 175.883C145.292 176.169 145.194 176.378 145.129 176.508C145.09 176.586 145.012 176.736 144.895 176.957C144.79 177.178 144.66 177.445 144.504 177.758C144.361 178.057 144.204 178.376 144.035 178.715C143.866 179.053 143.703 179.379 143.547 179.691C143.404 179.991 143.273 180.258 143.156 180.492C143.039 180.714 142.967 180.857 142.941 180.922C142.707 181.404 142.596 181.918 142.609 182.465C142.635 182.999 142.668 183.513 142.707 184.008C142.759 184.242 142.863 184.438 143.02 184.594C143.176 184.737 143.339 184.874 143.508 185.004C143.69 185.121 143.866 185.238 144.035 185.355C144.217 185.473 144.367 185.616 144.484 185.785C144.432 185.954 144.328 186.039 144.172 186.039C144.016 186.052 143.853 186.026 143.684 185.961C143.514 185.896 143.358 185.818 143.215 185.727C143.072 185.635 142.98 185.577 142.941 185.551ZM135.656 184.672C135.708 184.893 135.904 184.958 136.242 184.867C136.594 184.776 137.004 184.587 137.473 184.301C137.941 184.001 138.436 183.643 138.957 183.227C139.491 182.81 139.966 182.393 140.383 181.977C140.812 181.56 141.145 181.176 141.379 180.824C141.626 180.473 141.704 180.212 141.613 180.043C141.21 179.822 140.76 179.711 140.266 179.711C139.771 179.711 139.276 179.802 138.781 179.984C138.299 180.154 137.831 180.401 137.375 180.727C136.932 181.039 136.555 181.404 136.242 181.82C135.943 182.237 135.728 182.693 135.598 183.188C135.48 183.669 135.5 184.164 135.656 184.672ZM146.828 185.785C146.438 185.655 146.138 185.46 145.93 185.199C145.734 184.926 145.604 184.626 145.539 184.301C145.474 183.975 145.461 183.637 145.5 183.285C145.552 182.921 145.63 182.576 145.734 182.25C146.125 181.833 146.561 181.358 147.043 180.824C147.538 180.277 148.059 179.743 148.605 179.223C149.152 178.702 149.719 178.22 150.305 177.777C150.904 177.322 151.509 176.977 152.121 176.742C152.329 176.651 152.492 176.658 152.609 176.762C152.74 176.853 152.831 177.003 152.883 177.211C152.935 177.419 152.954 177.66 152.941 177.934C152.941 178.207 152.922 178.474 152.883 178.734C152.844 178.995 152.792 179.229 152.727 179.438C152.661 179.646 152.596 179.789 152.531 179.867C152.375 180.049 152.069 180.264 151.613 180.512C151.171 180.759 150.676 181.033 150.129 181.332C149.582 181.618 149.035 181.918 148.488 182.23C147.941 182.543 147.492 182.855 147.141 183.168C146.789 183.467 146.581 183.767 146.516 184.066C146.451 184.366 146.633 184.639 147.062 184.887C147.505 184.939 148.039 184.919 148.664 184.828C149.302 184.724 149.947 184.594 150.598 184.438C151.262 184.268 151.9 184.099 152.512 183.93C153.124 183.747 153.625 183.604 154.016 183.5L154.25 183.715C153.964 184.092 153.495 184.438 152.844 184.75C152.193 185.062 151.49 185.323 150.734 185.531C149.979 185.727 149.243 185.857 148.527 185.922C147.811 185.974 147.245 185.928 146.828 185.785ZM151.496 178.324C151.483 178.311 151.385 178.37 151.203 178.5C151.021 178.617 150.793 178.78 150.52 178.988C150.259 179.184 149.973 179.405 149.66 179.652C149.361 179.887 149.081 180.108 148.82 180.316C148.573 180.525 148.365 180.707 148.195 180.863C148.026 181.007 147.954 181.078 147.98 181.078C148.189 181.117 148.456 181.091 148.781 181C149.12 180.896 149.465 180.753 149.816 180.57C150.181 180.388 150.526 180.186 150.852 179.965C151.177 179.73 151.431 179.503 151.613 179.281C151.809 179.06 151.906 178.865 151.906 178.695C151.919 178.526 151.783 178.402 151.496 178.324ZM154.23 185.785C154.074 185.681 154.068 185.544 154.211 185.375C154.367 185.193 154.608 185.004 154.934 184.809C155.272 184.6 155.663 184.385 156.105 184.164C156.548 183.943 156.971 183.734 157.375 183.539C157.792 183.344 158.156 183.174 158.469 183.031C158.781 182.875 158.983 182.758 159.074 182.68C159.504 182.315 159.725 182.016 159.738 181.781C159.764 181.534 159.66 181.339 159.426 181.195C159.191 181.039 158.859 180.922 158.43 180.844C158.013 180.753 157.577 180.674 157.121 180.609C156.678 180.531 156.249 180.453 155.832 180.375C155.428 180.297 155.122 180.193 154.914 180.062C154.706 179.932 154.634 179.763 154.699 179.555C154.777 179.333 155.064 179.053 155.559 178.715C155.741 178.585 156.008 178.396 156.359 178.148C156.711 177.901 157.089 177.647 157.492 177.387C157.909 177.126 158.319 176.892 158.723 176.684C159.126 176.475 159.465 176.339 159.738 176.273C159.882 176.247 160.025 176.26 160.168 176.312C160.324 176.365 160.448 176.443 160.539 176.547C160.63 176.638 160.669 176.742 160.656 176.859C160.656 176.977 160.572 177.081 160.402 177.172C159.66 177.589 158.944 177.979 158.254 178.344C157.577 178.708 156.893 179.125 156.203 179.594C156.164 179.698 156.171 179.789 156.223 179.867C156.288 179.945 156.359 180.004 156.438 180.043C157.818 180.186 158.853 180.388 159.543 180.648C160.246 180.909 160.689 181.195 160.871 181.508C161.066 181.82 161.047 182.152 160.812 182.504C160.578 182.855 160.227 183.201 159.758 183.539C159.302 183.878 158.775 184.197 158.176 184.496C157.577 184.796 156.997 185.049 156.438 185.258C155.891 185.466 155.409 185.622 154.992 185.727C154.576 185.831 154.322 185.85 154.23 185.785Z" fill="white"/>
</svg>
